<?xml version="1.0" encoding="utf-8"?>
<!-- Generator: Adobe Illustrator 26.0.1, SVG Export Plug-In . SVG Version: 6.00 Build 0)  -->
<svg version="1.1" id="Laag_1" xmlns="http://www.w3.org/2000/svg" xmlns:xlink="http://www.w3.org/1999/xlink" x="0px" y="0px"
	 viewBox="0 0 570 570" style="enable-background:new 0 0 570 570;" xml:space="preserve">
<style type="text/css">
	.st0{clip-path:url(#SVGID_00000025444021734956601920000011230244115933159303_);}
	.st1{fill:#FFFFFF;}
	.st2{fill:#370A00;}
</style>
<g>
	<g>
		<defs>
			<rect id="SVGID_1_" y="0" width="570" height="570"/>
		</defs>
		<clipPath id="SVGID_00000164496487446014082500000007341939991677547679_">
			<use xlink:href="#SVGID_1_"  style="overflow:visible;"/>
		</clipPath>
		<g id="a" style="clip-path:url(#SVGID_00000164496487446014082500000007341939991677547679_);">
			<rect y="0" class="st1" width="570" height="570"/>
			<rect y="0" class="st2" width="570" height="570"/>
			<g transform="translate(64.347 152.45)">
				<g transform="translate(69.5 119.463)">
					<path class="st1" d="M92.8,95.7c-0.9-0.4-1.8-0.8-2.7-1.2c-1.4-0.8-3-1.4-4.6-1.7c-0.6-0.2-1-0.4-1.4-0.5c-1.4-0.3-2.6-1-3.6-2
						c-0.1,0-0.2,0-0.3,0c-0.2,0-0.4,0-0.6,0.1l-0.8,0.1L78.5,90l0.1-0.5c-0.1-0.2-0.3-0.4-0.5-0.5c-0.1-0.1-0.2-0.2-0.3-0.3
						l-0.7,0.3c-0.3,0.1-0.6,0.2-0.9,0.2c-0.7,0-1.3-0.2-1.9-0.6c-0.3,0-0.5-0.1-0.8-0.2c-0.2-0.1-0.5-0.1-0.7-0.1
						c-0.1,0-0.2,0-0.2,0.1l-0.3,0.4l-0.5,0l-0.3-0.4c-0.4-0.6-0.9-1-1.6-1.3c-0.6-0.2-1.1-0.5-1.6-0.9c-0.4,0-0.8,0-1.2,0
						c-0.2,0-0.5,0-0.7,0v0l1.8,4.9l1,5.1l1.3,0.7l4.9,0.2l4.9-0.2l4.9-0.4l4.9-0.1l3.8,0C93.5,96.3,93.1,96,92.8,95.7z"/>
					<path class="st1" d="M63.9,80.3l1.1,1.1l0.6,2.1c1.7,0,3.4,0.5,4.9,1.4c0.9,0.1,1.7,0.2,2.6,0.2c2,0.1,3.9,0.2,5.8,1.6
						c2.3,0.7,4.9,1.6,7.9,2.7c0.2,0,0.5-0.1,0.7-0.1c1.8,0.1,3.4,0.9,4.6,2.2c0.5,0.4,0.9,0.9,1.3,1.4c0.5,0.2,0.9,0.4,1.4,0.5
						c1.1,0.2,2.2,0.9,2.8,1.8c0.1,0,0.1,0,0.2,0c0.6,0.1,1.1,0.3,1.5,0.7c0.1,0.1,0.3,0.2,0.5,0.4c0.4,0,0.8,0.2,1.2,0.3l0.2-1.3
						l-1.7-5.7l-1.7-4.4c-0.5-0.2-1-0.4-1.5-0.5c-1.5-0.4-2.9-1.1-4-2.2c-1.5-0.5-3.2-1-4.6-1.4c-3.1-0.8-6-1.9-8.8-3.3
						c-0.3,0-1.4-0.1-1.4-0.1l-0.1,0l-0.3-0.3l0-0.3c-0.1-0.2-0.4-0.4-0.7-0.5c-0.3-0.1-0.5-0.3-0.8-0.5c-0.1,0-1,0-1.1,0
						c-0.5,0.2-1.1,0.4-1.6,0.3c-1.4-0.1-2.7-0.4-4-0.8c-0.4-0.1-0.7-0.2-1-0.3c-0.6-0.1-1.1-0.2-1.7-0.3c-1.1,0-2.3-0.3-3.2-1l0,0
						c-0.5,0-0.9-0.2-1.2-0.6l-0.1-0.1c-0.9-0.4-1.9-0.6-2.9-0.7c-0.5,0-1,0.1-1.4,0.2c-0.5,0.1-1.1,0.1-1.6,0.1
						c-1.3,0-2.6-0.2-3.9-0.5c-1.3-0.3-2.5-0.4-3.8-0.5L38.9,72l0-0.6l8.6-0.8c0.9-0.1,1.7-0.1,2.4-0.1c1.7,0.1,3.3-0.1,4.9-0.8
						l0.2-0.1l0.1,0l0.1,0c1,0.4,2,0.7,3.1,0.7c0.6,0,1.2-0.1,1.8-0.3l0.1,0l0,0l0.1-0.1l0.5,0l0.3,0.3c1,0.7,2.1,1.1,3.3,1.2
						c0.9,0.3,1.9,0.6,2.9,0.6c0.3,0,0.7,0.1,1,0.1c0.8-0.4,1.8-0.6,2.7-0.6c1.9,0.1,3.8,0.7,5.5,1.6l0.3,0.1
						c4.2,0.6,8.2,2.4,12,4.1c0.4,0,0.8-0.1,1.1-0.1c2.1,0.1,4.1,0.8,5.7,2.1l-0.3-0.8l-1.6-5.6l-1-2.1l-2.9-1.3
						c-4-1.6-8-3-12.2-4.2c-3.2-1-6.3-1.9-9-2.9h0c-2.3-0.1-4.6-0.5-6.8-1.1c-1.2-0.3-2.3-0.5-3.3-0.7l-1.6-0.3v-0.1l-3.7-0.1
						l-5.4,0l-5.4,0l1.8-5.1l1.6-5.2l1.5-5.2l1.6-5.1l1.2-5.2l0.8-1l1.2,0.9l1.2,5.2l1,5.3l1.9,5l0.7,5.3l1.7,4.4
						c0.2,0,0.4-0.1,0.7-0.1c0.6,0,1.2,0.1,1.8,0.2c0.7,0.1,1.5,0.2,2.2,0.2c0.6,0.1,1.3-0.1,1.9-0.4l0.2-0.1l0.3,0l0.2,0.1
						c0.4,0.2,0.8,0.4,1.2,0.4c0.3,0,0.6,0,0.8-0.1c0.4-0.1,0.7-0.1,1.1-0.1c0.4,0,0.8,0.1,1.2,0.2c1.8,1,3.8,1.6,5.9,1.7
						c0.6,0.1,1.3-0.1,1.8-0.5l0.2-0.2h0.4l0.2,0.2c1.2,1.1,2.8,1.8,4.4,1.9c1,0.2,2.1,0.4,3.1,0.8c1.1,0.3,2.2,0.8,3.2,1.4
						c0.4,0.2,0.8,0.5,1.2,0.7l-0.9-2.8L88.3,58l-0.8-2.6c-1-0.4-2-0.7-3-0.8c-0.1,0-0.2,0-0.3,0h-0.1l-0.2-0.1l-0.2-0.1
						c-0.5-0.4-1-0.6-1.6-0.8c-0.5,0-0.9,0.2-1.3,0.5l-0.3,0.2L80,54.2l-0.1-0.4c-0.3-0.6-1.5-0.9-2.6-1.1c-1-0.1-1.9-0.4-2.7-0.9
						l-0.5-0.5l0.2-0.5l0.7-0.1c0.5-0.1,1.1-0.1,1.6-0.1c1.7,0,3.4,0.2,5,0.6c1.6,0.3,3.2,0.5,4.9,0.5l-1-3.4l-1.8-4.7l-1-4.9
						l-1.3-4.8L80.2,29l-1.6-4.8l-1.5-4.5l5.9-0.2l1-1.5l-0.7-5.7L83,6.6l-0.2-5.7l-0.9-0.9l-6.3,0.4l-6.3,0.1l-4.6-0.6l-4.6,0.3
						l-4.6,0l-4.6,0l-5.4,0.2l-5.4,0.2L35,0.4l-4.7-0.1l-4.7,0.1L21,0L20,0.3l-0.2,0.9l0,5.8l0.1,5.8l-0.6,5.8l0.9,0.4l0.4,1
						l5.9-0.2L25.1,25l-1.4,5.6L22,36l-2.4,5.2L18.7,46l-1.8,4.5l-1.4,4.7l-1.9,4.5l-1.3,4.7L11,69.1l-1.9,4.4L7,77.8l-1.6,4.5
						l-2,4.3l-1.8,4.4L0,95.6l0.4,0.7l0.5,0.9l4.9-0.1l4.9,0.1l4.9-0.5l4.9,0.1l4.9,0.1l4.9,0.4l0.9-1l1.8-4.9l1.6-5l2-4.9l0.5-1.2
						l5.3,0.7l5.3,0l5.3,0l5.3-0.2L63.9,80.3z"/>
				</g>
				<g transform="translate(179.41 119.627)">
					<path class="st1" d="M86,85.7l-0.2-3c-3.6,1.5-7.4,2.5-11.3,3l-2.3,0.3L72,85.5l2.1-1c2.8-1.3,7.3-3.5,11.6-5.7l0.2-3.1l-0.6-5
						l-0.1-1.2c0,0-0.1,0-0.1,0c-0.3,0-0.6,0.2-0.8,0.4L84.2,70c-7.5,3.2-15.4,4.9-22.9,6.3l-0.2,0l-0.4-0.2l-0.1-0.7l0.2-0.4l0.1,0
						c2-0.5,3.9-1.2,5.7-2.1c3-1.2,6.1-2.5,8.5-2.9c0.6-0.4,1.3-0.7,2-1c0.3-0.1,0.6-0.3,0.9-0.4l-0.1-0.5l2.5-1
						c1.3-0.6,2.5-1.3,3.6-2l0.7-0.4l-0.2-4.2l0.3-4.8c-0.3,0.1-0.7,0.2-1,0.3l-1.2,0.4c-1.4,0.6-2.7,1.5-3.7,2.7l-0.1,0.1l-0.2,0.1
						c-1.2,0.2-2.3,0.5-3.3,1.1c-1.2,0.5-2.3,1-3.2,1.4c-1.9,0.9-3.9,1.7-5.9,2.3c-1.2,2.2-3.8,3.5-6.9,3.5c-0.6,0-1.2-0.1-1.8-0.2
						l-0.2,0c-3.6,1-7.4,1.7-11.1,2.3l-6.1,1.1l2.3,3.9l3.4,4.1l3.1,4.3l2.9,4.5l2.9,4.4l2.4,4.8l0.7-0.4l5.5,0.4l5.5,0l5.5,0.1
						l5.5-0.3l5.5,0.4l0.9-0.3l0.4-0.9l-0.7-5L86,85.7z"/>
					<path class="st1" d="M44.1,68.7c2.5-0.7,4.9-1.6,7.3-2.5c4.1-1.7,8.4-2.9,12.8-3.7c0.7-0.5,2.4-1.8,2.4-1.8
						c4.1-3,8.3-6.2,13.4-7.2c0.7-0.4,1.4-0.8,2-1.3c0.9-0.7,1.9-1.3,3-1.8l0-0.6l0.6-5.4l0.2-5.4l0-0.2c-0.6,0.4-1.1,0.8-1.7,1.2
						c-1.4,2.8-4.7,3.5-7.4,3.8c-0.5,0.3-1,0.6-1.4,1c-0.9,0.8-2,1.3-3.2,1.4c-0.1,0-0.2,0-0.3,0c-0.4,0.6-1,1-1.7,1.1
						c-0.2,0.1-0.4,0.1-0.6,0.2c-0.9,1.1-2.5,1.5-3.9,1.9c-0.4,0.1-0.8,0.2-1.1,0.3c-0.1,0.1-0.3,0.3-0.4,0.4
						c-0.7,0.9-1.7,1.5-2.8,1.6c-0.1,0-0.3,0-0.4,0c-0.3,0-0.5-0.1-0.8-0.3c-1.5,0.5-3.1,0.9-4.7,1.2l-3.7,0.7l-0.2-0.6l3.5-1.4
						c1-0.4,1.9-0.8,2.8-1.3c2-1.1,4.3-1.9,6.5-2.2c1.2-1.3,2.7-2.4,4.3-3.1c1.5-1.9,3.6-3.1,6-3.4c0.9-0.6,1.9-1.2,2.8-1.6
						c1.7-0.8,3.2-1.8,4.5-3.1l0.2-0.1c0.4-0.3,0.8-0.6,1.2-0.9c0.7-0.5,1.4-1,2.2-1.4l0-0.6l0-5.4L86,23l0.1-5.4l0.5-5.4l0.1-5.4
						l-0.5-5.4l0.1-0.7l-0.7-0.3l-5.1,0l-5-0.4l-5,0.9l-5-0.6l-5.1,0.5l-5.1-0.4l-0.9,0.2L54,1.5l0.5,5.1l0.4,5.1l0.1,5.1l0.1,5.1
						l0.1,5.1l0.2,5.1l-0.6,5.1l0.4,4.7l-2.6-4.2l-2.9-4.4l-2.7-4.5l-2-5l-3.3-4.2l-2.2-4.8l-2.9-4.5l-2.7-4.6L31,1.1l-0.6-0.5
						l-4.9-0.3l-4.9,0.2l-4.9,0l-4.9-0.3L6.1,0.3L1.2,0.5L0.6,0.9L0.3,1.5L1,7l-0.2,5.6L1,18.2l0.6,5.6l-0.2,5.1l-0.2,5.1l-0.1,5.1
						l0.3,5.2l0.2,5.1l-0.2,5.1l-0.1,5.1l0,5.1l-0.4,5.1l-0.2,5.1L0,80.3l0.3,5.2l-0.1,5.2L0,95.8l1.1,1.1L7,97.1l5.9-0.3l5.9,0.7
						l0,0.1l6.4-0.7l6.4-0.2l0.8-0.9L32,90.9l0.7-4.9l-0.2-4.9l-0.3-4.9l-0.6-4.9l-0.4-4.9l0-4.9L31,56.3l2.8,4.9l3.1,4.3l2.8,4.4
						L44.1,68.7z"/>
				</g>
				<path class="st1" d="M441.2,183.7c-0.2,0.3-0.4,0.5-0.6,0.7c-0.6,0.6-0.7,0.8-0.5,1l0.3,0.5l-0.2,0.5l-0.5,0.1
					c-0.8,0-1.6,0.4-2.2,1c-0.5,0.5-1.1,0.9-1.8,1.2c-1.4,3.4-3.7,5.9-6.1,8.6c-0.3,0.4-0.7,0.8-1,1.1l-2.8,3.1l-0.5-0.4l2.3-3.6
					c0.8-1.3,1.5-2.6,2.1-3.9c1.4-3,2.8-6,5.8-7.9c0.6-0.8,1.2-1.7,1.7-2.6c0.9-1.8,2.2-3.4,3.8-4.6l-0.8-2.8l-2.1-5.1l-2.2-1.8
					c0,0,0,0-0.1,0c-0.1,0.2-0.3,0.5-0.4,0.7c-0.1,0.2-0.2,0.4-0.2,0.4c-0.1,2-2,4-3.5,5.6c-0.3,0.3-0.6,0.6-0.8,0.9
					c-0.4,0.5-0.8,1.1-1.2,1.6c-0.6,1.2-1.6,2.2-2.7,2.8c0,0,0,0,0,0.1c-0.2,0.5-0.8,0.8-1.2,0.9l-0.1,0.1c-1.5,1.1-2.5,2.6-2.9,4.4
					c-0.8,2.1-1.9,4-3.4,5.7c-1,1.2-1.9,2.5-2.7,3.9l-4.3,8.7l-0.6-0.3l3.7-8.9c0.4-1,0.8-1.8,1.2-2.6c1-1.7,1.7-3.6,1.9-5.6l0-0.2
					l0.1-0.1l0.1-0.1c1.6-1.2,2.7-3,3.1-5c0,0,0-0.1,0-0.2l-0.1-0.2l0.2-0.4l0.4-0.1c1.3-0.6,2.3-1.6,3-2.8c0.9-0.8,1.6-1.7,2.2-2.7
					c0.2-0.3,0.4-0.7,0.7-1c0.2-3.7,2.6-5.7,5.1-7.8l-3.5-3.1l-4.2-2.6c-1.7,1.8-3.4,3.4-5,4.9c-1.4,2.4-3,4.6-4.9,6.7
					c-0.9,1.1-1.7,2.1-2.5,3.1l-1.1,1.4l-0.5-0.3l0.5-1.7c0.4-1,0.9-1.8,1.5-2.7c1-1.6,2.2-3.3,2-4.6l0-0.2l0.1-0.3l0.2-0.1
					c0.7-0.5,1.3-1.2,1.5-2.1c0.2-0.9,0.7-1.7,1.3-2.3c1.5-1,2.8-2.2,3.8-3.6l-1.3-0.7l-3.9-2.2l-4.9-3.3l-3.9-4.3l4.1-4l5.8-1.4
					l5.1,0.6l4.9,1.2l4.6,2l1-0.3l0.1-0.7l0-4.6l0-4.6l0-4.6l-0.1-4.5l-0.2-7.5l-0.6-0.7l-5-0.5l-5-0.5l-5-0.4l-5-1l-4.9,0.9l-5,0.1
					l-4.8,1.4l-4.6,1.8l-4.2,2.6l-3.9,3l-3.5,3.5l-2.4,4.4l-1.8,4.6l-1.3,4.8l-0.1,5l0.6,5.3l1.4,5.1l2.5,4.6l3.8,3.6l3.4,3.5l4,2.8
					l4.3,2.3l4.2,2.5l5,3.3l3,4.7l-2.1,3.9l-4.7,1.2l-4.9-0.6l-4.7-1.3l-4.5-1.8l-4.1-2.6l-3.9-2.8l-1.2-0.5l-0.4,1.3l0,5l-0.1,5
					l0,5l0,5l0.5,5l0.4,6.1l0.3,0.6l0.2-0.4l4.8,1.5l5,1.1l5,0.6l5,1.3l5.1,0.1l5.1-0.2l5-1l4.9-1.3l4.7-1.6l4.2-2.8l4.2-2.8
					l3.2-3.9l2.9-4.5l2.3-4.8l0.6-5.3l0.2-5.3l-0.2-2.9C441.4,183.5,441.3,183.6,441.2,183.7z"/>
				<g transform="translate(0 119.115)">
					<path class="st1" d="M15,0.8L12.3,6c-0.5,1-1.1,1.8-1.6,2.6c-1.2,1.7-2.1,3.6-2.5,5.6l0,0.2l-0.1,0.1L8,14.5
						c-2.1,1.6-3.2,3-3.7,4.9c0,0,0,0.1,0,0.2l0,0l0.1,0.2l-0.2,0.4l-0.4,0.1c-1,0.3-1.8,0.9-2.5,1.6L1.3,26l0.3,4.8l-0.7,5l0,0.7
						c0.3-0.2,0.6-0.3,0.9-0.5l0,0c0,0,0-0.1,0-0.2c0.1-0.5,0.4-1,0.9-1.3l-0.2-0.2l2.6-2.6c3.6-3.8,7-7.9,10.2-12.1
						c2.5-3.3,4.9-6.3,7.3-9c1.2-2.6,2.7-5.1,4.3-7.5c0.6-0.9,1.1-1.7,1.6-2.5l-2.3-0.1L21.7,0l-5.1,1L15,0.8z"/>
					<path class="st1" d="M29.2,3.1c-0.9,1.7-1.9,3.6-1.6,4.9l0.1,0.2l-0.1,0.3l-0.2,0.1c-0.7,0.6-1.2,1.4-1.3,2.4
						c-0.1,0.9-0.5,1.8-1.1,2.5c-1.8,1.3-5.7,6.3-4.8,8.4l0.1,0.3L20,22.7l-0.3,0.1c-2.1,1-3.1,2.5-4.2,4.3
						c-0.6,1.1-1.4,2.2-2.2,3.2c-0.8,1.2-1.9,2.2-3,3c-1.8,1.4-3.4,2.7-3.3,5l0,0.3l-0.3,0.3l-0.3,0c-1.3,0.1-2.5,0.8-3.3,1.8
						c-0.5,0.6-1.1,1.1-1.8,1.5c0,0.1,0,0.2,0,0.3L1.2,43L1,43.1l0.2,2.6l0.3,5l0.1,5L1.2,58c2.3-2.1,4.3-4,5.7-5.4
						c0.6-0.7,1.4-1.4,2.2-1.9c1.5-1.1,2.7-1.9,2.3-3.6l-0.1-0.4l0.3-0.4l0.4-0.1c1.9-0.3,2.9-1.8,4-3.4c0.5-0.8,1.1-1.6,1.8-2.3
						c1.2-1.2,3.1-3.1,3.6-4.7l0-0.1l0.1-0.1l0.1-0.1l0.2-0.2c1.5-1.1,2-1.4,1.6-3.3l-0.1-0.4l0.3-0.4H24l0.1,0
						c0.6-0.2,4-4.6,7.6-9.8l0.5-0.7l0.2,0.1l-0.1-4.4l-0.5-4.8l-0.3-4.8l0.3-4.8l-1-1l-0.6,0C29.9,1.6,29.6,2.4,29.2,3.1z"/>
					<path class="st1" d="M0.3,1.1L0,2l0.5,4.8L1,11.6l0.1,4.8l0.1,1.9c1.3-0.9,2.2-2.2,2.7-3.7c1-2.1,2.4-3.9,4.1-5.5
						c1.2-1.2,2.3-2.4,3.2-3.8L14,0.8l-2.6-0.2L6.3,1.2L1.2,0.9L0.3,1.1z"/>
					<path class="st1" d="M64.7,74.1L64.1,74L58,74.1l-6.1,0.2l-4.9-0.5L42,74.2l-4.9,0l-4.8,0l0-4.7l0-4.8l-0.5-4.8l0.5-4.8
						l0.1-4.8l-0.5-4.8l0-4.8l-0.1-4.8L31.6,31l0.8-4.8l-0.1-3.9c-0.7,2.6-4.9,9.7-6.2,12c-1.6,2.8-3.3,5.6-3.7,8.6l0,0.2l-0.2,0.2
						l-0.2,0.1c-2.1,1.1-3.9,3.6-5.7,6c-1.8,2.5-3.7,5.2-6.2,6.3l0.1,0.5l-0.3,0.4l-0.4,0H9.7c-0.1,0-0.1,0-0.2,0
						C9,57,8.6,57.4,8,57.8c-0.8,0.5-1.5,1.2-1.9,2.1c-0.4,0.6-0.9,1-1.5,1.3c-0.3,0.2-1.3,0.8-1.4,1l1.3,1.1l-0.3,0.5l-1.6-0.6
						c-0.2,0-0.3,0-0.5,0.1c0,0.2,0,0.4-0.1,0.6l-0.3,0.6H1.4l0.1,0.9l-0.5,5l0.2,5l0.1,5l0.2,5l-0.1,5l-0.3,5l1,0.9l4.6,0.5
						l4.6,0.8l5.3-0.2l5.3-0.2l5.3,0l5.3,0L38,97l5.3,0.6l5.3,0.1l5.3-0.2l5.3,0l1.2-0.9l1.2-5.4l0.8-5.5l0.9-5.5l1.3-5.4L64.7,74.1
						z"/>
				</g>
				<g transform="translate(53.665 1.488)">
					<path class="st1" d="M108.5,0.8l-0.5-0.3L103.3,0l-4.8,0.3L93.8,0L89,0.6l-4.8,0.1l-4.8-0.5l-0.9,0.3l-0.5,0.9l0.5,5.3l0.6,5.3
						l0.3,5.3l0,5.3L78.6,28l0.3,5.5l-0.8,5.4l-0.5,5.4l-0.2,5.4l-0.8,1l-1.3-0.5l-2.4-4.9l-2.6-4.8l-2.7-4.7l-3.1-4.4L62,26.6
						l-2.1-5l-2.8-4.6L56,16.3l-0.5,1l-2.6,4.1l-2.8,4l-2.2,4.4l-2.8,4l-2.5,4.2l-2.2,4.4l-2.1,4.4L35.8,51l-1.4,0.4l-0.6-0.9
						l-1.3-6.1l-1.3-6.1l0.2-5.3l0.6-5.3l-0.7-5.3l0.2-5.3l0.5-5.3l0-5.3l-0.2-5.3l0.1-0.8l-0.8-0.2l-4.9,0.2l-4.9,0.2L16.3,0
						l-4.9,0.6L6.4,0.4L1.5,0.7L0.7,0.5L0,1.4l0.9,5.3L0.7,12l0.6,5.3l0.2,5.3L1,28.1l1,5.3l-0.3,5.4L2,44.1l0.8,5.1L3,54.4l0.4,5.1
						l0.7,5.1l0,0.4l1.5,0.3c4.7,0.9,9.5,1.8,13.5,4.7c0.7,0.2,1.4,0.4,2.2,0.5c1.6,0.2,3.1,0.8,4.4,1.8c1.6,0.4,3.3,0.6,5,0.9
						c3.3,0.4,6.5,1.1,9.6,2.3c0.3,0,0.7,0,1.5-0.1l0.2,0l0.3,0.3l0,0.3c0.1,0.2,0.5,0.3,0.8,0.4c0.3,0.1,0.6,0.2,0.9,0.4
						c0.2,0,0.5-0.1,0.7-0.1s0.3,0,0.4-0.1c0.8-0.4,1.7-0.7,2.5-0.6c0.7,0,1.3,0.1,2,0.2l1.3-1.7l1.8-4.7l2.4-4.3l1.2-0.8l0.5,1.2
						l2.5,4.3l2.9,4l1.9,4.6l2.5,4.3l2.4,4.3l2.4,4.3l2.7,4.2l1,0.4l5.6-0.1l5.6,0.2l5.6-0.2l5.6,0.4l5.6-0.2l1.3-0.9l0.5-4.8
						l0.1-4.8l0.2-4.8l0.8-4.8l0.3-4.8l1-4.8l0.2-5.3l0-5.3l0-5.3l0.4-5.3l0.7-5.3l-0.4-5.4l0.2-5.3l0.4-5.3l0-5.7l0.3-5.7l0.6-5.7
						l0.3-5.7L108.5,0.8z"/>
					<path class="st1" d="M43.2,79.9l-0.4-0.1c-4.4-0.1-8.8-1.4-13-2.7c-0.7,0.2-1.4,0.3-2.2,0.3c-2.8,0-5.3-1.5-7.7-2.9l-1-0.6
						c-1.3-0.6-2.7-0.9-4.2-0.9l-0.1,0l-0.2-0.1c-0.9-0.7-1.8-1.2-2.9-1.6c-1-0.5-2-0.9-3-1.3c-1.6-0.6-3.1-1.3-4.5-2.2l0,2.1
						l0.8,5.1l0,3.1c0.7,0.3,1.4,0.7,2,1.3c0,0,0.1,0,0.1,0c0.1,0,0.2,0,0.3,0c0.3,0,0.5,0,0.8,0.2l0.1-0.2l3.1,1.2
						c4.2,1.5,8.5,2.8,12.9,3.8c3.4,0.9,6.6,1.7,9.4,2.6l0.3,0c2.4,0.1,4.7,0.4,7.1,0.9c0.6,0.1,1.3,0.2,1.9,0.3l0.4-0.8l2.4-4.3
						l1.1-2.2C45.5,80.5,44.3,80.2,43.2,79.9z"/>
					<path class="st1" d="M41.8,89.6c-0.7-0.1-1.3-0.1-2-0.1c-0.8-0.1-1.6,0.1-2.3,0.5l-0.2,0.1l-0.3,0L36.7,90
						c-0.4-0.2-0.8-0.3-1.2-0.3c-0.3,0-0.7,0.1-1,0.1c-0.4,0.1-0.8,0.1-1.3,0.1c-0.4,0-0.7-0.1-1.1-0.2c-1.8-1-3.8-1.5-5.9-1.5
						c-0.8-0.1-1.5,0.1-2.2,0.6l-0.2,0.2l-0.4,0l-0.2-0.2c-1.5-1.3-3-1.5-4.7-1.8c-1.1-0.1-2.2-0.3-3.2-0.7
						c-1.2-0.3-2.3-0.7-3.4-1.3c-1-0.7-2.2-1.1-3.4-1.2c-0.5,0-1,0.1-1.5,0.4l-0.3,0.1l-0.4-0.1L6.1,84c-0.3-0.5-0.7-1-1.2-1.3
						l0,2.5l0.6,5.1l0.8,5.1l0.9,0.8l5.1,0.2l5.1-0.3l5.1-0.1l5.1,0.2l5.1-0.1l5.1,0.6l0.8-0.9l2.5-4.3l1.1-2.1L41.8,89.6z"/>
				</g>
				<g transform="translate(226.201 1.403)">
					<path class="st1" d="M64.3,73.5l-0.6-0.3l-5.3-0.3L53.2,73L48,73.3l-5.3-0.4l-5.3,0.7l-5.3-0.4L31,72.5l0.3-5l-0.3-5l-0.3-5
						l-0.2-5l0.3-5l-0.4-5l0.1-5l-0.4-5.2l0-5.2l0.4-5.2l0.5-5.2l-0.5-5.2l1-5.2l-0.5-5.2l0.2-0.9l-0.9-0.1l-4.8,0.1L20.6,0
						l-2.2,0.3c-1.5,1-2.9,2.1-4.3,3.2L13.3,4C9.8,6.8,6,9.2,1.9,11.1c-0.5,0.6-1,1.3-1.5,1.9l-0.2,0.2L0,16.2l0.5,5l0.1,5l-0.4,3.7
						c0.5-0.3,1-0.6,1.5-0.9c0.4-0.2,0.8-0.4,1.1-0.7c0.1-0.1,0.2-0.3,0.3-0.4c0.7-1.2,1.4-2.3,2.8-2.5c0.1,0,0.2,0,0.4,0
						c0.2,0,0.4,0,0.5,0c1.4-0.9,2.9-1.8,4.4-2.5l3.5-1.8l0.3,0.5L11.9,24c-0.8,0.6-1.6,1.3-2.4,1.9L9.4,26c-1.8,1.7-3.8,3-6,4
						c-0.8,1.5-1.9,2.8-3.2,3.9l0.1,2.2l-0.3,5l0.2,5l-0.1,5l0.5,5l-0.4,5l0.3,5l0.1,5L0.9,76l0.1,4.9l-0.5,4.9l0.1,4.9l0.5,4.9
						l1.2,1.3l5.1-0.8l5.1,0l5.1-0.1l5.1,0.7l5.1-0.1l5.1-0.3l5.1,0.1l5.1,0.1l5.1,0.3l5.1-0.3l5.1,0.2l1.2-1l1.3-5.4l1.1-5.4
						l1.4-5.4l1.1-5.4L64.3,73.5z"/>
					<path class="st1" d="M0.8,9.3C1.1,8.7,1.6,8.2,2.2,8c0.2-0.1,0.4-0.2,0.6-0.4C3.1,7.4,3.3,7.2,3.5,7c0.5-0.6,1.3-1.1,2.1-1.3
						c0.2-0.1,0.3-0.1,0.5-0.2C7,5.2,7.7,4.6,8.3,3.9l0.1-0.1c0.2-0.3,0.4-0.5,0.6-0.7C9.3,2.9,9.6,2.8,10,2.8
						c0.3,0,0.5-0.1,0.8-0.2c0.5-0.2,1-0.5,1.4-0.8c0.3-0.2,0.6-0.3,0.8-0.4c0.3-0.2,0.9-0.5,1.6-0.8l-3.7,0l-4.8,0L1.3,0.2l-1.2,1
						L0,6.2l0.2,3.6C0.4,9.7,0.6,9.5,0.8,9.3z"/>
				</g>
				<path class="st1" d="M370.7,86.5l-0.2,0l-0.1-0.1l-0.1-0.1c-1.5-2.6-4.1-4.5-6.5-6.2c-2.2-1.5-4.2-3.2-5.9-5.2l-0.7-0.9l0.4-0.5
					l0.6,0.4c1.7,0.9,5.2,2.7,6.1,2.7l0.5-0.2l0.4,0.2l0.1,0.4c0.4,1.8,0.9,1.9,2.7,2.3l0.3,0.1l0.2,0.1l0.1,0.1
					c1,1.2,3.4,2.2,4.9,2.8c0.8,0.4,1.6,0.8,2.4,1.4c0.4,0.2,0.7,0.5,1.1,0.7l0.7-0.6l3.3-3.9l1.2-2.6c-0.2-0.2-0.3-0.3-0.5-0.5
					c-0.5-0.4-1.2-1.2-1.6-1.2c0,0-0.1,0-0.1,0l-0.3,0.2l-0.5-0.1l-0.2-0.3c0-0.1-0.1-0.1-0.1-0.2c-0.7-0.2-1.3-0.6-1.9-1
					c-0.7-0.6-1.6-0.9-2.5-0.9c-0.2,0-0.4,0-0.6,0.1l-0.3,0l-0.3-0.2l-0.1-0.3c-0.4-2-2-2.8-3.9-3.7c-1.2-0.5-2.3-1.2-3.3-2
					c-0.9-0.7-1.8-1.4-2.6-2.3c-1.3-1.3-2.5-2.5-4.5-2.8l-0.3-0.1l-0.2-0.3l0-0.3c0.1-1.2-1.4-3-3.1-4.4l-1.3,4.4l-1.4,5.2l-3.3,4.3
					l-4.4,3l-5.1,1.5l-6.1,0.3l-1.1-1.3l-0.4-5.4l-0.2-5.4l0.6-5.4l-0.7-5.4l-0.1-5.4l0.1-5.5l0.4-5.5l0.6-5.5l-0.7-5.5l1.4-0.9
					l6.5,0l4.5,1.1l4.1,2.7l2.8,4.1l2,4.5l0.9,4.8l0.8,4.7l0.7,4.8l-0.1,2.5c2,1.5,4.1,3.1,6.3,4.9c3.6,3,7.4,5.8,11.4,8.4l2.9,1.8
					l-0.1,0.2c0.4,0.2,0.7,0.5,0.9,0.9c0,0.1,0.1,0.1,0.1,0.1c1.2,0.2,2.3,0.7,3.3,1.5c0.6,0.4,1.2,0.8,1.8,1.1
					c0.6,0.2,1.2,0.4,1.8,0.7l1.3-2.4l0.8-5.1l0.1-0.4c-2.1-0.9-3.7-2.6-4.6-4.6c-0.3-0.2-0.6-0.4-0.9-0.7c-0.8-0.7-1.8-1.3-2.8-1.8
					c-1.1-1-2.5-1.6-3.9-1.8h-0.4l-0.3-0.3l0-0.3c0,0,0-0.1,0-0.1c-1-1.7-2.6-3.1-4.5-3.7l-0.1-0.1l-0.1-0.1l-0.1-0.1
					c-0.8-1.8-2.1-3.5-3.6-4.8c-0.7-0.6-1.3-1.3-2-2.1l-6.4-7.3l0.4-0.4l6.9,6.8c1.2,1.1,2.4,2,3.8,2.9c1.9,1.1,3.6,2.5,5,4.2
					c1,1.6,2.5,2.7,4.2,3.3h0.1c0.5-0.1,1.1,0.1,1.5,0.5c0,0,0,0,0,0.1c1.3,0.3,2.5,0.9,3.5,1.8c0.5,0.4,1.1,0.8,1.6,1.2
					c0.3,0.2,0.7,0.4,1.1,0.6c1.1,0.5,2.2,1.2,3.2,1.9l0.6-4.6l-0.1-5.1l-0.1-1.1c-0.3-0.2-0.5-0.4-0.7-0.6
					c-0.2-0.2-0.4-0.3-0.5-0.4c-1.5-0.2-2.7-1.4-3.8-2.4c-0.4-0.3-0.6-0.6-0.9-0.8c-0.2,0-0.3-0.1-0.5-0.1c-1.4-0.3-2.7-0.6-3.3-1.9
					c-0.1-0.3-0.2-0.6-0.2-0.9c-1.3-1.1-2.6-2.2-3.7-3.5l-2.6-2.8l0.4-0.5l3.1,2.3c0.9,0.6,1.8,1.2,2.7,1.8c2.1,1.2,4,2.7,5.6,4.5
					c1.5,0.3,3,0.8,4.4,1.6l0-0.5l-1.1-5.3l-0.9-5.3l-0.7-5.4l-2.2-5l-2.3-4.9l-3.2-4.3l-3.5-4.1l-4.4-3.1l-4.6-2.8L360,3.1
					l-5.2-1.7l-5.4-0.5L344,0.1l-5.4,0.4l-4.7,0.1l-4.7-0.1L324.6,0l-4.6,0.9l-4.7-0.3l-4.4,0L306.5,1l-4.3,1l-0.6,0.7l0.1,5.1
					l-0.3,5.1l0.1,5l0.6,5l0.3,5l-0.2,5.1l0.8,5l-0.1,5.1l-0.5,4.9l0.2,4.9l0.1,4.9l-0.4,4.9l0.1,4.9l0,4.9l-0.9,4.9l0.5,4.9
					l-0.1,4.9l-1,4.8l-1,4.8l0.6,0.9l0.8,0.6l4.9,0.2l4.9-0.5l4.9,0.2l4.9-0.1l4.9,0.1l4.9,0.5l4.9,0.1l0-0.3l4.9,0.3l4.8-0.9
					l4.8-0.3l4.8-0.7l4.6-1.5l4.5-1.6l5.1-2.5l4.3-3.7l0.2-0.2C372.6,86.9,371.7,86.7,370.7,86.5z"/>
				<path class="st1" d="M367.3,162.7l-1-5.2l-0.4-5.3l-1.5-5l-1.7-5l-2.8-4.5l-2.8-4.4l-3.5-3.8l-4.1-3.6l-4.9-2.4l-5-2l-5.3-1.2
					l-5.3-1.1l-5.5,0.4l-5.4-0.8l-4.7,0l-4.7,0l-4.7,0.2l-4.7,0.6l-4.7-0.3l-6,0.4l-6,0.7l-1.3,0.7l0.1,5l-0.3,5l0.2,5l0.3,4.3
					c1.1-1,2.2-2,3.4-3l1.1-0.9l3.2-2.6l0.4,0.4l-2.7,3.1c-0.9,1.1-1.7,2.2-2.5,3.4c-0.9,1.4-1.8,2.7-2.9,3.9l0,1.4l0,5l-0.9,5
					l0.1,2.8c0.3-0.1,0.5-0.1,0.7-0.3c0.3-0.2,0.6-0.3,0.9-0.4c0.1-0.2,0.4-0.5,0.5-0.7c0.1-0.2,0.2-0.3,0.2-0.4
					c0.3-1.9,2.4-3.5,4.1-4.8l0.1-0.1c0.3-0.2,0.6-0.5,0.8-0.7c0.5-0.4,0.9-0.9,1.3-1.4c0.7-1,1.8-1.9,3-2.3l0-0.1
					c0.3-0.4,0.8-0.7,1.3-0.7c0.1,0,0.1,0,0.2,0c1.5-0.8,2.7-2.2,3.3-3.8c1-1.9,2.4-3.5,4-4.9c1.1-1,2.1-2.1,3.1-3.4l5.4-7.8
					l0.5,0.3l-4.8,8.1c-0.5,0.9-1.1,1.7-1.6,2.3c-1.2,1.5-2.1,3.2-2.5,5.1l0,0.1l-0.1,0.1l-0.1,0.1c-1.7,0.9-3,2.5-3.6,4.3
					c0,0,0,0.1,0,0.2l0,0l0.1,0.2l-0.2,0.4l-0.4,0.1c-1.3,0.4-2.4,1.2-3.2,2.3c-0.9,0.6-1.8,1.4-2.5,2.3c-0.2,0.3-0.5,0.6-0.8,0.8
					c-0.7,3.6-3.4,5.2-6.3,6.9l-0.4,0.2c-0.9,1-1.9,1.8-3,2.7l0.1,2.8l0.2,5.4l0.2,1.8c2.8-2,5.7-4.2,8.6-6.4c3-2.4,5.8-4.5,8.5-6.3
					c1.7-2.1,3.5-4,5.5-5.7c1-0.9,1.9-1.8,2.8-2.6l1.2-1.2l0.5,0.3l-0.7,1.6c-0.5,0.9-1.1,1.7-1.8,2.3c-1.2,1.3-2.5,2.8-2.5,4v0.2
					l-0.2,0.3l-0.2,0.1c-0.8,0.4-1.4,1-1.7,1.8c-0.3,0.8-0.9,1.5-1.6,2c-1.9,0.7-6.4,4.3-6.1,6.3l0,0.3l-0.3,0.3l-0.3,0.1
					c-2.1,0.4-3.2,1.5-4.6,2.8c-0.8,0.9-1.7,1.6-2.7,2.3c-1,0.8-2.1,1.5-3.3,2c-0.2,0.1-0.4,0.2-0.7,0.3l0,4.1l-0.3,5
					c0.1,0,0.2,0,0.3,0c1.5,0,2.6-1,3.8-2.1c0.6-0.6,1.3-1.2,2.1-1.7c1.3-0.8,3.4-2.1,4.2-3.4l0.1-0.1l0.1-0.1l0.1-0.1l0.2-0.1
					c1.6-0.6,2-0.8,2.2-2.6l0-0.4l0.4-0.3l0.4,0.1c0.1,0,0.1,0,0.2,0c0.7,0,1.6-0.9,2.4-1.7c0.7-0.8,1.6-1.4,2.6-1.8l0.7-0.2
					l0.3,0.4l-0.4,0.7c-1.3,2.2-2.9,4.1-4.8,5.8c-2,2.1-4.2,4.2-5.2,6.8l-0.1,0.2l-0.1,0.1l-0.1,0.1c-2.2,0.5-4.3,2.3-6.4,4.1
					c-0.9,0.8-1.8,1.5-2.8,2.2l-0.2,5.1l-0.2,5.4l-0.3,5.4l-0.2,5.4l0.5,0.4l0.4,0.6l4.9,0.2l4.9,0.3l4.9,0l4.9,0.1l4.9,0.2l4.9-0.2
					l4.9-0.3l0,0h5.5l5.5-0.4l5.4-1l5.3-1.3l5.4-1.4l4.9-3l4.6-3.4l4.1-4l2.9-4.3l2.2-4.7l2.1-4.8l1.4-5l0.8-5.1l0.9-5.1l0.3-5.2
					L367.3,162.7z M334.6,173.9l-1.1,5.3l-1.8,5.2l-3.4,4.3l-3.7,4.1l-5.4,0.6L313,193l-1-0.7l-0.6-4.7l-0.1-4.7l0.5-4.8l-0.3-4.7
					l-0.1-4.7l0.2-4.9l0.2-4.9l-0.1-5l-0.2-5l0.1-4.9l1.2-1l6.7-0.1l5.3,1l3.6,4.1l3.6,4.2l1.6,5.3l1.2,5.4l0.4,5.5L334.6,173.9z"/>
				<g transform="translate(176.524 0.865)">
					<path class="st1" d="M8.4,16.1l-0.2,0.1l-0.2,0c-1.8,0.1-2.8,1.3-4,2.7c-0.6,0.7-1.2,1.4-1.9,2L2.1,21
						c-0.4,0.3-0.9,0.7-1.4,1.1l0,0.1l0.2,5.2l-0.5,5.1l0.3,3.5c1.4-0.8,2.6-2,3.4-3.4c0.7-1,1.4-2,2.3-2.8c0.8-1,1.8-1.9,2.9-2.6
						c1.8-1.3,3.3-2.4,3.2-4.5l0-0.3l0.3-0.3l0.3,0c1.2-0.1,2.3-0.7,3.1-1.6c0.5-0.5,1.1-1,1.7-1.4c0-0.1,0-0.2,0-0.3l0.1-0.2
						l0.1-0.2l0.2-0.1l0.3,0l0.2,0.1c0.5,0,1.1-0.9,1.5-1.5c0.3-0.6,0.8-1.1,1.3-1.6l0.1-0.1l0.2,0c0.1,0,0.2,0,0.3-0.3
						c0.1-0.2,0.3-0.3,0.5-0.5l0.1-0.1l0.2-0.1c0.3,0,1-0.1,1.2-0.6c0.3-0.4,0.6-0.8,1.1-1c0.3-0.1,0.5-0.3,0.7-0.6l0.1-0.1l0.1-0.1
						c2.2-1.7,4.6-3.2,6.9-4.7l-0.1-0.5l0.2-5.2l-1-1.4l-4.7,0.5l-1.7-0.1c-4.7,3.6-9.8,7.7-12.6,10c-0.6,0.6-1.4,1.2-2.2,1.6
						c-1.5,0.9-2.6,1.5-2.4,3.1l0,0.3L8.5,16L8.4,16.1z"/>
					<path class="st1" d="M33.7,17.3l-0.1-5.2l-0.2-1.2c-0.1,0.1-0.2,0.2-0.3,0.2c-0.3,0.2-0.5,0.4-0.8,0.6l0.3,0.5l-2.2,1.6
						c-1,0.8-2,1.7-2.9,2.7l-0.2,0.2c-1.6,1.7-3.3,3.1-5.2,4.4c-0.5,0.4-1,0.9-1.5,1.4c-0.8,1-1.9,1.8-3.1,2.3c0,0,0,0.1,0,0.1
						c-0.1,0.4-0.4,0.8-0.8,1.1l0.1,0.2l-2.5,2.4c-2.9,2.7-5.9,6.1-8.8,9.3l-1.4,1.5c-1.2,1.4-2.5,2.8-3.9,4.3L0,48.2l0.3,5.3
						l0.8,5.3l-0.1,3c1.4-1.1,2.3-2.7,2.6-4.4c0,0,0-0.1,0-0.2l-0.1-0.1v-0.3l0.1-0.2l0.2-0.1L4,56.4c1.3-0.6,2.3-1.6,3-2.8
						c0.9-0.8,1.6-1.7,2.2-2.7c0.2-0.3,0.4-0.6,0.6-1c0-3.6,2.4-5.7,5-7.9l0.4-0.4c2.6-3.8,6.1-7,9.6-10.1l0.6-0.5
						c1.1-4,4.5-5.9,7.8-7.8l0.2-0.1l0-0.5L33.7,17.3z"/>
					<path class="st1" d="M32.7,50.3c-0.2,0.3-0.3,0.7-0.4,1l-0.2,0.8l-0.5,0.2L31.2,52c0,0-0.1,0-0.1,0c-0.3,0.1-0.5,0.2-0.8,0.3
						c-0.2,0.1-0.3,0.2-0.5,0.3v0.9c-0.1,1.1-0.8,2.1-1.7,2.6c-0.2,0.3-0.3,0.5-0.6,0.8c-0.6,0.7-0.6,0.8-0.5,1l0.3,0.4l-0.2,0.5
						l-0.6,0.1c-0.9,0.1-1.7,0.5-2.2,1.1c-0.5,0.5-1.2,1-1.9,1.3c-1.2,3.5-3.6,6.1-5.9,8.6l-3.8,4.2l-0.5-0.4l2.2-3.5
						c0.7-1.3,1.4-2.6,1.9-3.9c1.3-2.9,2.6-5.9,5.5-7.9c0.6-0.8,1.1-1.7,1.5-2.6c1.1-2.1,2.1-4,4.5-5.3c1.6-1.8,3.6-3.9,5.9-6.4
						l0-0.7L34,38.2L33.8,33l-0.6-3.8c-0.3,0.2-0.6,0.3-0.9,0.4c-1.1,1.2-2.3,2.6-3.4,4l-0.3,0.3c-2.2,2.9-4.8,5.5-7.7,7.7
						c-0.8,1.6-0.9,1.7-1.2,1.7l-0.2,0l-0.1-0.1C19.3,43,19.3,43,19.3,43c-0.3,0.1-0.6,0.3-0.9,0.5c-0.3,0.2-0.6,0.4-0.9,0.6
						c-0.1,0.2-0.2,0.5-0.3,0.7c-0.1,0.2-0.2,0.4-0.2,0.5c0.1,1.9-1.9,4.1-3.3,5.6c-0.3,0.4-0.6,0.6-0.8,0.9c-0.4,0.5-0.8,1-1.1,1.6
						c-0.6,1.2-1.5,2.2-2.7,2.9l0,0.1c-0.2,0.5-0.8,0.8-1.2,0.9c-0.1,0-0.1,0.1-0.2,0.1c-1.4,1-2.4,2.6-2.8,4.3
						c-0.7,2.1-1.9,4-3.3,5.6l-0.1,0.1c-0.2,0.2-0.3,0.4-0.5,0.6l0,1.6l0.5,5.3L1,80.1L1,85.5l0.6,5.3l0.5,5.3l0.7,0.7l4.3,0.8
						l4.3,0.2l4.3-0.6l0,0.1l5.5,0.4l5.5-0.4l5.5-0.5l1-0.8l0-5.3l-0.1-5.3l0.4-5.3l0-5.3l-0.2-5.3l0.3-5.3l0-5.2l0.3-5.2l-0.1-4.1
						C33.6,50,33.2,50.1,32.7,50.3z"/>
					<path class="st1" d="M19.4,0.1l0.1,0.3l0,0c0.1-0.1,0.3-0.1,0.5-0.2L19.4,0.1z"/>
					<path class="st1" d="M1.3,15.8c1-0.9,2-1.9,2.9-3l0.1-0.2c1.9-2.1,3.8-4.3,6-5.1l0-0.4l0.3-0.3h0.4c0.1,0,0.1,0,0.2,0
						c0.4-0.4,0.9-0.7,1.4-1c0.8-0.4,1.5-1,1.9-1.8c0.4-0.5,0.9-0.9,1.5-1.1c0.5-0.2,0.9-0.5,1.3-0.8l-1.1-1.1l0.4-0.5l1.5,0.6
						c0.1,0,0.3,0,0.4-0.1c0-0.2,0-0.4,0.1-0.6l0.2-0.4L18.2,0L13,0L7.9,0.5L2.8,0.4l-1,1.3L1.4,6.8L1.8,12L1.3,15.8z"/>
				</g>
			</g>
			<g transform="translate(95.242 395.863)">
				<path class="st1" d="M20,19.1v0.3h-5.4l-1.1-2.4H6.4l-1.1,2.4H0v-0.3L8.9,0.1h2.2L20,19.1z M8.2,12.6h3.5L10,8L8.2,12.6z"/>
				<path class="st1" d="M41.6,9.8c0,5.7-3.9,9.5-9.8,9.5h-7.6v-19h7.6C37.7,0.3,41.6,4.1,41.6,9.8z M36.5,9.8c0-3.2-1.7-5-4.7-5
					h-2.6v10.1h2.6C34.8,14.9,36.5,13,36.5,9.8z"/>
				<path class="st1" d="M63,0.3v0.3l-8.3,18.9h-2.2L44,0.6V0.3h5.3L51.8,6l1.8,5.1L55.2,6l2.4-5.7L63,0.3z"/>
				<path class="st1" d="M79.4,14.9v4.5H67.3v-19h11.9v4.4h-6.9v2.8h6.4v4.3h-6.4v3H79.4z"/>
				<path class="st1" d="M101.8,0.3v19.1h-2l-9.6-9.7l0.1,3.4v6.2h-4.9V0.2h2L97,9.6l-0.1-3.4v-6L101.8,0.3z"/>
				<path class="st1" d="M120.6,4.8H116v14.6h-5V4.8h-4.6V0.3h14.2L120.6,4.8z"/>
				<path class="st1" d="M125,12.1V0.3h5V12c0,1.6,1.3,2.9,2.9,2.9c1.6,0,2.9-1.3,2.9-2.9V0.3h5v11.8c0,4.5-3.1,7.6-7.9,7.6
					S125,16.6,125,12.1z"/>
				<path class="st1" d="M163.6,19.2v0.1H158l-3.2-5.9h-2.7v5.9h-5v-19h8.1c4.3,0,7.3,2.7,7.3,6.7c0,2.2-1.2,4.3-3.1,5.4L163.6,19.2
					z M152.2,9.2h2.9c1.3,0.1,2.4-0.9,2.5-2.2c0.1-1.3-0.9-2.4-2.2-2.5c-0.1,0-0.2,0-0.3,0h-2.9L152.2,9.2z"/>
				<path class="st1" d="M180.6,14.9v4.5h-12.1v-19h11.9v4.4h-6.9v2.8h6.4v4.3h-6.4v3H180.6z"/>
				<path class="st1" d="M209.1,14.9v4.5h-15v-1.6L200.3,7l1.3-2.2h-6.9V0.3h14.2v1.5L202.5,13l-1.1,1.8H209.1z"/>
				<path class="st1" d="M213,9.8c0-5.8,4.1-9.8,10-9.8s10,4.1,10,9.8s-4.1,9.8-10,9.8S213,15.6,213,9.8z M227.9,9.8
					c0.2-2.6-1.7-4.9-4.3-5.1c-0.2,0-0.4,0-0.6,0c-2.9,0-4.9,2-4.9,5.1c-0.1,2.7,1.9,5,4.6,5.2c2.7,0.1,5-1.9,5.2-4.6
					C227.9,10.2,227.9,10,227.9,9.8L227.9,9.8z"/>
				<path class="st1" d="M237.4,9.8c0-5.8,4.1-9.8,10-9.8s10,4.1,10,9.8s-4.1,9.8-10,9.8S237.4,15.6,237.4,9.8z M252.2,9.8
					c0.2-2.6-1.7-4.9-4.3-5.1c-0.2,0-0.4,0-0.6,0c-2.9,0-4.9,2-4.9,5.1c-0.1,2.7,1.9,5,4.6,5.2c2.7,0.1,5-1.9,5.2-4.6
					C252.3,10.2,252.3,10,252.2,9.8L252.2,9.8z"/>
				<path class="st1" d="M283.9,14.9v4.5h-12.1v-19h11.9v4.4h-6.9v2.8h6.4v4.3h-6.4v3H283.9z"/>
				<path class="st1" d="M309.5,0.2v19.1h-5v-5.3l0.1-4.2l-4.8,4.9h-0.4l-4.8-4.9l0.1,4.2v5.3h-5V0.2h2l7.8,8.2l7.8-8.2H309.5z"/>
				<path class="st1" d="M335.6,0.2v19.1h-5v-5.3l0.1-4.2l-4.8,4.9h-0.4l-4.8-4.9l0.1,4.2v5.3h-5V0.2h2l7.8,8.2l7.8-8.2H335.6z"/>
				<path class="st1" d="M354.2,14.9v4.5h-12.1v-19H354v4.4H347v2.8h6.4v4.3H347v3H354.2z"/>
				<path class="st1" d="M376.6,0.3v19.1h-2L365,9.7l0.1,3.4v6.2h-4.9V0.2h2l9.6,9.4l-0.1-3.4v-6L376.6,0.3z"/>
			</g>
		</g>
	</g>
</g>
</svg>
